# xmcd
#
# Track frame offsets: 
#        150
#        14011
#        27928
#        45249
#        62575
#        94604
#        114119
#        129776
#        145335
#        178347
#
# Disc length: 2506 seconds
#
# Revision: 15
# Processed by: cddbd v1.5.2PL0 Copyright (c) Steve Scherf et al.
# Submitted via: ExactAudioCopyFreeDBPlugin 1.0
#
DISCID=7a09c80a
DTITLE=Duane Allman - An Anthology CD2
DYEAR=2008
DGENRE=Blues
TTITLE0=Delaney and Bonnie and Friends - Livin' on the Open Road
TTITLE1=Johnny Jenkins - Down Along the Cove
TTITLE2=Cowboy - Please Be With Me
TTITLE3=Eric Clapton and Duane Allman - Mean Old World
TTITLE4=Derek and the Dominos - Layla
TTITLE5=The Allman Brothers Band - Statesboro Blues
TTITLE6=The Allman Brothers Band - Don't Keep Me Wonderin'
TTITLE7=The Allman Brothers Band - Standback
TTITLE8=The Allman Brothers Band - Dreams
TTITLE9=The Allman Brothers Band - Little Martha
EXTD=
EXTT0=
EXTT1=
EXTT2=
EXTT3=
EXTT4=
EXTT5=
EXTT6=
EXTT7=
EXTT8=
EXTT9=
PLAYORDER=
